<?xml version="1.0" standalone="no"?><svg xmlns:xlink="http://www.w3.org/1999/xlink" xmlns="http://www.w3.org/2000/svg" viewBox="0 0 1200 654.5452179485928" preserveAspectRatio="xMaxYMax slice"><g transform="scale(1.3012827394604232)"><rect x="0" y="0" width="1006" height="503" fill="#F6F1F1"/><path d="M 368.87 50.3 A 16.77 16.77 0 0 1  385.64 33.53 L 368.87 50.3 A 16.77 16.77 0 0 0 385.64 33.53" fill="#6fa2b9"/><g transform="translate(452.7,33.53) scale(0.8385) rotate(0)"><rect width="20" height="10" fill="#21749a"/></g><g transform="translate(704.2,33.53) scale(0.8385) rotate(0)"><rect width="20" height="10" fill="#71c4dc"/></g><g transform="translate(788.03,33.53) scale(0.8385) rotate(0)"><rect width="20" height="10" fill="#e2e5e9"/></g><rect x="201.2" y="117.37" width="16.77" height="16.77" fill="#ccd8e0"/><g transform="translate(452.7,117.37) scale(0.8385) rotate(0)"><path d="M10 0H20V10L10 20H0V10L10 0Z" fill="#add9e5"/></g><path d="M 117.37 217.97 A 16.77 16.77 0 0 1  134.14000000000001 201.2 L 117.37 217.97 A 16.77 16.77 0 0 0 134.14000000000001 201.2" fill="#a1d5e4"/><g transform="translate(452.7,201.2) scale(0.8385) rotate(0)"><path d="M5 0H10L5 5L0 10V5L5 0Z" fill="#5f98b3"/><path d="M20 15V20H15L20 15Z" fill="#5f98b3"/><path d="M20 5V10L15 15L10 20H5L20 5Z" fill="#5f98b3"/><path d="M15 0H20L5 15.0002L0 20.0002V15.0002L15 0Z" fill="#5f98b3"/></g><polygon points="788.03,201.2 804.8,201.2 804.8,217.97" fill="#dfe9ed"/><g transform="translate(955.7,201.2) scale(0.8385) rotate(0)"><path d="M10 0H20L0 20V10L10 0Z" fill="#a0d4e3"/><path d="M20 10V20H10L20 10Z" fill="#a0d4e3"/></g><g transform="translate(33.53,285.03) scale(0.8385) rotate(0)"><path fill-rule="evenodd" clip-rule="evenodd" d="M10 20C15.5228 20 20 15.5228 20 10C20 4.47715 15.5228 0 10 0C4.47715 0 0 4.47715 0 10C0 15.5228 4.47715 20 10 20ZM10 17C13.866 17 17 13.866 17 10C17 6.13401 13.866 3 10 3C6.13401 3 3 6.13401 3 10C3 13.866 6.13401 17 10 17Z" fill="#cee4eb"/></g><g transform="translate(285.03,285.03) scale(0.8385) rotate(0)"><rect width="20" height="10" fill="#2aadd1"/></g><rect x="536.53" y="285.03" width="16.77" height="16.77" fill="#19a7ce"/><g transform="translate(33.53,368.87) scale(0.8385) rotate(0)"><path d="M13 0H20V7L7 20H0V13L13 0Z" fill="#2d7a9e"/></g><g transform="translate(117.37,368.87) scale(0.8385) rotate(0)"><path fill-rule="evenodd" clip-rule="evenodd" d="M10 20C15.5228 20 20 15.5228 20 10C20 4.47715 15.5228 0 10 0C4.47715 0 0 4.47715 0 10C0 15.5228 4.47715 20 10 20ZM10 17C13.866 17 17 13.866 17 10C17 6.13401 13.866 3 10 3C6.13401 3 3 6.13401 3 10C3 13.866 6.13401 17 10 17Z" fill="#b8dce7"/></g><polygon points="385.64,368.87 385.64,385.64 368.87,385.64" fill="#96b9ca"/><g transform="translate(452.7,368.87) scale(0.8385) rotate(0)"><path d="M10 0H20L0 20V10L10 0Z" fill="#47b6d5"/><path d="M20 10V20H10L20 10Z" fill="#47b6d5"/></g><rect x="620.37" y="368.87" width="16.77" height="16.77" fill="#83adc2"/><path d="M 620.37 469.46999999999997 A 16.77 16.77 0 0 1  637.14 452.7 L 620.37 469.46999999999997 A 16.77 16.77 0 0 0 637.14 452.7" fill="#e4ebee"/><g transform="translate(788.03,452.7) scale(0.8385) rotate(0)"><path d="M5 0H10L5 5L0 10V5L5 0Z" fill="#59bdd8"/><path d="M20 15V20H15L20 15Z" fill="#59bdd8"/><path d="M20 5V10L15 15L10 20H5L20 5Z" fill="#59bdd8"/><path d="M15 0H20L5 15.0002L0 20.0002V15.0002L15 0Z" fill="#59bdd8"/></g><g transform="translate(871.87,452.7) scale(0.8385) rotate(0)"><path d="M10 0H20V10L10 20H0V10L10 0Z" fill="#79c7dd"/></g></g></svg>